<?xml version="1.0"?>
<svg width="640" height="480" xmlns="http://www.w3.org/2000/svg" xmlns:svg="http://www.w3.org/2000/svg" xmlns:xlink="http://www.w3.org/1999/xlink">
 <!-- Created with SVG-edit - https://github.com/SVG-Edit/svgedit-->
 <defs>
  <symbol height="74.667" id="svg_16" width="74.385" xmlns="http://www.w3.org/2000/svg">
   <defs>
    <clipPath id="svg_2">
     <path d="m0,56l55.789,0l0,-56l-55.789,0l0,56z" id="svg_15"/>
    </clipPath>
   </defs>
   <g>
    <title>background</title>
    <rect fill="none" height="76.667" id="svg_14" width="76.385" x="-1" y="-1"/>
   </g>
   <g>
    <title>Layer 1</title>
    <g clip-path="url(#svg_2)" id="svg_1" transform="matrix(1.33333,0,0,-1.33333,0,74.667) ">
     <path fill="red" id="svg_13"/>
     <path d="m33.08989,25.55437a0.88813,0.85323 0 0 0 1.77562,0a0.88813,0.85323 0 1 0 -1.77562,0m2.98315,2.33471a0.46268,0.4445 0 0 0 -0.46458,0.44571m-8.87371,-3.95505l0,-0.74953c0,-0.18436 0.1616,-0.33293 0.35286,-0.33293l0.70001,0c0.05871,0 0.11805,0.04973 0.11805,0.10613c2.02496,-0.1698 3.1965,-0.84171 2.4889,-2.28499c0,0 -2.62331,-6.00401 -2.15751,-8.70937c0.4658,-2.70536 0.15465,-0.16313 0.24996,-0.19163l1.03142,-0.12187l0.63248,0.61732l1.20942,-0.21953a0.55611,0.53425 0 0 1 0.61797,0.31837c0.25753,0.59429 0.74421,1.78348 1.03899,2.99995c0.23544,0.97027 1.17785,1.66947 2.19412,1.64946c0.14771,0 0.26511,0.11218 0.26511,0.25469l0,0.00607a0.26322,0.25288 0 0 1 -0.24996,0.24074c-0.67036,0.01395 -2.49648,0.16374 -2.14363,1.25226l0.79534,2.96538c0.08837,0.31716 0.39073,0.53668 0.72969,0.53668l0.53023,0c0.27269,0 1.60627,5.91971 0.49235,0.47422l0,1.36626c0,0.38932 -2.16482,-2.51004 0.70823,0.72891a51.34478,49.32723 0 0 0 1.00112,-3.63668c0.37557,-1.62763 1.18542,-3.4105 2.91624,-3.0424c0,0 -1.43603,1.30137 -1.45055,3.22008c-0.00757,0.5579 -0.1477,1.11702 -0.31624,1.65552l-0.5681,1.81015l4.03666,0c0.30172,0 -0.14674,2.31621 0.87614,0.1698l2.66563,1.05395l0,-0.07762a0.18937,0.18193 0 0 1 0.19189,-0.17586l1.36976,0c0.10289,0 0.18432,0.07702 0.18432,0.17586l0,2.26437a0.18937,0.18193 0 0 1 -0.18432,0.18374l-1.36976,0a0.19568,0.18799 0 0 1 -0.19189,-0.18374l0,-0.13463l-4.23422,0c-0.3093,0 -0.60409,0.16252 -0.75873,0.42449l-0.74357,1.28743l-0.04419,-0.0279l-1.36976,2.06607a5.30667,5.09815 0 0 0 -1.99591,-1.22436l1.34766,-2.03028l-0.06628,-0.04245l-4.8604,-1.47178c-0.33139,0 -0.61861,-0.1983 -0.73665,-0.48817l-1.09075,0l0,0.12735a0.11678,0.11219 0 0 1 -0.11741,0.1134l-0.69939,0a0.34149,0.32807 0 0 1 -0.34716,-0.33292" id="svg_12" stroke="null"/>
     <ellipse cx="36.99535" cy="34.71396" fill="#ff0000" id="svg_11" rx="2.46799" ry="3.12793" stroke="#000000" stroke-width="null"/>
     <rect fill="#ff0000" height="38.2353" id="svg_10" stroke="#191919" stroke-width="null" width="8.47619" x="15.38409" y="3.36126"/>
     <ellipse cx="19.56056" cy="41.83466" fill="#ff0000" fill-opacity="null" id="svg_9" rx="4.29972" ry="4.80392" stroke="#191919" stroke-width="null"/>
     <ellipse cx="23.70902" cy="15.60776" fill="#ff0000" fill-opacity="null" id="svg_8" stroke="#ff0000" stroke-opacity="null" stroke-width="null"/>
     <rect fill="#000000" height="4.11765" id="svg_7" stroke="#000000" stroke-width="null" width="0.39215" x="19.35608" y="46.63858"/>
     <ellipse cx="19.58559" cy="50.4438" fill="#000000" id="svg_6" rx="1.28204" ry="0.35799" stroke="#000000" stroke-width="null"/>
     <rect fill="#ff0000" height="7.66387" id="svg_5" stroke="#ff0000" stroke-width="null" width="6.493" x="16.38686" y="34.23225"/>
     <line fill="none" id="svg_4" stroke="#191919" stroke-linecap="null" stroke-linejoin="null" stroke-width="null" x1="62.96242" x2="63.72786" y1="20.53939" y2="31.00044"/>
     <line fill="none" id="svg_3" stroke="#191919" stroke-linecap="null" stroke-linejoin="null" stroke-width="null" x1="65.5139" x2="64.74845" y1="42.60966" y2="37.63428"/>
    </g>
   </g>
  </symbol>
 </defs>
 <g class="layer">
  <title>Layer 1</title>
  <use id="svg_17" transform="matrix(7.18289 0 0 6.22788 7.39207 5.99139)" x="0" xlink:href="#svg_16" y="0"/>
  <g id="svg_18"/>
  <path d="m198.5,66.5c1.610672,0 2.5,0 3.399994,0c0.90451,0 1.921509,0 2.620834,0c0.979172,0 1.768509,0 2.8125,0c0.756012,0 1.682388,0.157104 2.566666,-0.010666c0.945923,-0.179466 1.587402,-0.904251 2.400009,-0.987999c0.831589,-0.085701 1.852661,-0.001335 2.547333,-0.001335c1.016663,0 1.954041,-0.048477 2.855331,0.001335c0.771408,0.042633 1.80101,0.356972 2.546661,0.573334c0.915359,0.265602 1.730408,0.377823 2.555176,0.778c0.888092,0.430901 1.560852,0.473465 2.528824,0.813995c0.712128,0.250526 1.510956,0.897583 2.145844,1.333336c0.809967,0.555916 1.258545,1.292702 2.120667,1.500168c0.840118,0.202179 1.32402,0.813759 2.100159,1.285164c0.676376,0.41082 1.300003,1.214661 1.900177,1.814835c0.535828,0.535835 1.221161,1.221169 1.899826,1.899834c0.516006,0.515999 1.327728,1.180435 1.833328,2c0.414627,0.672104 1.271881,0.856194 2,1.333336c0.619843,0.406189 0.744598,1.618889 1.219345,2.305c0.457748,0.661552 1.236755,1.078209 1.647324,1.713493c0.585083,0.905319 1.142593,1.50634 1.595505,2.300835c0.384644,0.674728 0.461395,1.744804 0.713501,2.647339c0.244812,0.876427 1.216904,0.993156 1.748001,1.799995c0.512558,0.778679 0.370621,1.677277 0.742996,2.420837c0.469574,0.93763 0.403412,1.658501 0.504501,2.726494c0.087967,0.929375 0.425034,1.591797 0.796829,2.354004c0.390564,0.800674 0.881119,1.527069 1.113342,2.514664c0.176834,0.752075 0.085327,1.709335 0.085327,2.717339c0,0.862167 -0.025787,1.687515 0.352661,2.471161c0.429276,0.888878 0.636917,1.716171 0.647339,2.695503c0.008392,0.789284 -0.000671,1.514664 0,2.5c0.000671,0.984001 -0.081589,1.713806 0.283997,2.615997c0.330933,0.816666 0.696823,1.719421 0.714676,2.485336c0.023163,0.993896 0.001236,1.741501 0.001328,2.773331c0.000092,0.946671 -0.139038,1.672279 0.221329,2.603836c0.300903,0.77784 0.725388,1.559677 1.062668,2.505501c0.251694,0.705803 0.672073,1.628593 0.714676,2.400002c0.05249,0.950546 0.001328,1.717331 0.001328,2.716003c0,0.799988 0,1.799988 0,2.599991c0,0.999832 0,1.779175 0,2.778839c0,0.830994 -0.019272,1.791321 0.020828,2.541992c0.042633,0.797974 0.275818,1.789734 0.553833,2.668503c0.318375,1.006348 0.406097,1.620834 0.424011,2.496002c0.020477,0.999786 0.001328,1.835495 0.001328,2.716003c0,0.898499 0,1.787994 0,2.641495c0,1.035675 0,1.93634 0,2.555832c0,1.005844 0,1.858505 0,2.822678c0,0.803986 0,1.625992 0,2.657318c0,0.921341 0,1.605347 0,2.606674c0,0.835495 0,1.716003 0,2.912003c0,0.581329 0,1.632004 0,2.588333c0,0.914337 0,1.814331 0,2.614334c0,0.899994 0,1.835999 0,2.68399c0,0.863342 0,1.763336 0,2.682678c0,0.833328 0,1.811996 0,2.585999c0,0.904495 0,1.651825 0,2.842834c0,0.74733 0,1.651825 0,2.571167c0,0.833328 0,1.811996 0,2.585999c0,0.899994 0,1.763336 0,2.74733c0,0.985336 0,1.710663 0,2.699829c0,0.779343 0,1.779007 0,2.610001c0,0.959503 0,1.710999 0,2.507507c0,0.99733 0,1.871994 0,2.882492c0,0.779343 0,1.778671 0,2.598831c0,0.837341 0,1.854004 0,2.548676c0,1.027328 0,1.973999 0,2.827332c0,0.940002 0,1.825333 0,2.582504c0,0.895493 0,1.758835 0,2.763657c0,1.021835 0,1.729843 0,2.473831c0,1.034668 0,2.005341 0,2.762512c0,0.899994 0,1.647324 0,2.642822c0,0.800003 0,1.799835 0,2.764008c0,0.951996 0,1.720001 0,2.661331c0,1.007996 0,1.800003 0,2.658661c0,0.863342 0,1.763336 0,2.682678c0,0.854156 0.029175,1.834244 -0.010666,2.643997c-0.043137,0.876785 -0.273605,1.874588 -0.414673,2.425323c-0.222443,0.868408 -0.460037,2.062927 -0.521988,2.655014c-0.087494,0.83606 -0.298477,1.955215 -0.627335,2.723663c-0.367752,0.859314 -0.419998,1.595947 -0.425339,2.585327c-0.004318,0.799988 0,1.800003 0,2.600006c0,0.800003 0,1.800003 0,2.599991c0,1 0,1.800003 0,2.799835c0,0.779343 0,1.778839 0,2.684174c0,0.94133 0,1.632004 0,2.705338c0,0.832001 0,1.743988 0,2.661331c0,0.743988 0,1.779999 0,2.631989c0,0.96402 -0.014282,1.579102 0.001328,2.800018c0.010178,0.796661 0.003723,1.573914 0.351334,2.511993c0.29689,0.801178 0.585007,1.573059 0.626511,2.326172c0.043839,0.795502 0.020828,2.022003 0.020828,2.874664c0,1.003174 0,1.768494 0,2.719147c0,0.885345 -0.122467,1.700592 0.057159,2.642517c0.17746,0.930481 0.657883,1.630707 0.821335,2.442657c0.191528,0.951447 0.121506,1.914825 0.121506,2.800171c0,0.757172 0,1.652679 0,2.515991c0,0.984009 0,1.805328 0,2.658661c0,0.940002 0,1.925354 0,2.825348c0,0.757172 0,1.652679 0,2.515991c0,0.984009 -0.091446,1.814148 0.035995,2.658661c0.145264,0.962555 0.727097,1.547943 0.906845,2.478027c0.164154,0.849396 0.050308,1.893616 0.223831,2.847321c0.101257,0.556519 0.344254,1.518555 0.480667,2.199158c0.251343,1.253815 0.333435,2.017639 0.351318,2.812836c0.022217,0.987762 0.001343,1.97467 0.001343,2.73468c0,0.919983 0,1.701508 0,2.492004c0,1.118317 0,1.952332 0,2.897308c0,0.848022 0,1.711334 0,2.615845c0,1.081512 0,1.75351 0,2.497498c0,1.107849 0,1.99884 0,2.903351c0,0.863312 0,1.721985 0,2.668823c0,0.88916 0,1.87851 0,2.678497c0,1 0,1.789337 0,2.514679c0,0.985321 0,1.96933 0,2.659973c0,1.072693 0,1.992004 0,2.661346c0,1.164001 0,1.963989 0,2.764008c0,0.995483 0,1.742828 0,2.647339c0,0.919312 0,1.752655 0,2.731323c0,0.773987 0,1.678497 0,2.62265c0,0.998688 0,1.798676 0,2.797363c0,0.76532 0,1.717316 0,2.485321c0,0.951996 0,1.717316 0,2.711487c0,0.919189 0,1.779175 0,2.72583c0,0.853333 0,1.794678 0,2.562683c0,0.951996 0,1.717316 0,2.716003c0,0.799988 0,1.799988 0,2.600006c0,0.999817 0,1.779144 0,2.778473c0,0.82019 0,1.778687 0,2.67868c0,0.747345 0,1.741516 0,2.506836c0,1.078827 0,1.936005 0,2.835999c0,0.799988 0,1.757172 0,2.652679c0,0.863312 0,1.711334 0,2.647308c0,0.900024 0,1.800018 0,2.700012c0,0.757172 -0.12915,1.675842 0.085327,2.515991c0.259399,1.016052 0.871979,1.682526 0.914673,2.650665c0.036713,0.83252 0,1.666687 0,2.49469c0,0.881317 -0.003571,1.838654 0,2.570648c0.005341,1.096039 0.382751,1.916168 0.716003,2.653351c0.33139,0.733032 0.283325,1.715973 0.283997,2.710144c0.000519,0.747345 -0.044983,1.798859 0.425323,2.379181c0.499023,0.615753 0.358368,1.55365 0.631836,2.315491c0.300812,0.838013 0.927155,1.3703 1.226837,2.193848c0.320282,0.880188 0.687408,1.757385 0.716003,2.615997c0.029968,0.899506 -0.082184,1.847839 0.610657,2.463989c0.657837,0.585022 1.272278,1.022034 1.746521,1.735992c0.525848,0.791656 1.070313,1.382141 1.642822,2.179169c0.429718,0.598236 1.317902,1.109985 2.100006,1.399353c0.851746,0.315125 1.699982,0.12149 2.657166,0.12149c0.899994,0 1.647552,-0.02002 2.644165,0.001343c0.835175,0.017914 1.769196,0.149658 2.546844,0.351318c0.7948,0.206116 1.902802,0.576874 2.630493,0.636658c0.918304,0.075439 1.82132,0.011353 2.721313,0.010681c0.900024,-0.000671 1.791687,-0.233246 2.457184,-0.704498c0.717926,-0.508362 1.454529,-0.840393 2.221313,-1.395508c0.757324,-0.548248 1.31076,-1.210876 2.021515,-1.899994c0.591217,-0.573212 1.514648,-0.845642 2.099823,-1.442841c0.612854,-0.625427 0.768829,-1.685059 0.984192,-2.441162c0.22464,-0.788635 0.632202,-1.514771 1.114655,-2.515991c0.287506,-0.59668 0.632813,-1.600342 0.776001,-2.389343c0.189545,-1.044464 0.710693,-1.614227 0.96817,-2.510651c0.250092,-0.870697 0.121674,-1.760437 0.342499,-2.750671c0.137756,-0.617706 0.232178,-1.638367 0.814484,-2.463501c0.481781,-0.682709 0.85434,-1.374115 0.910858,-2.311188c0.041809,-0.69342 0.533508,-1.517242 0.822662,-2.507996c0.190765,-0.653595 0.164398,-1.661316 0.166656,-2.695984c0.001678,-0.768005 0.057159,-1.670685 0.5,-2.470673c0.442841,-0.799988 0.445618,-1.70166 0.500153,-2.600006c0.042725,-0.703857 0.612457,-1.482117 0.974518,-2.299988c0.3479,-0.785889 0.868988,-1.459686 1.320831,-2.252686c0.384491,-0.674774 0.553101,-1.832947 1.225342,-2.347321c0.678986,-0.519501 1.320129,-1.16507 1.453827,-1.825348c0.203644,-1.005707 0.636627,-1.746918 1,-2.574646c0.344788,-0.7854 0.843079,-1.604706 1.078003,-2.357178c0.281433,-0.90152 0.485474,-1.634705 0.894653,-2.481171c0.38205,-0.790375 1.042236,-1.303131 1.052673,-2.245667c0.007629,-0.690613 0.004486,-1.763336 0.166656,-2.682648l0.258667,-0.658691l0.40802,-1.007996l0.155975,-0.755981" fill="none" id="svg_20" stroke="#000000" stroke-width="5"/>
  <path d="m450.5,243.5c1.757172,0 2.657166,0 3.40451,0c0.994171,0 1.938324,0 2.838318,0c0.857513,0 1.727844,0 2.525177,0c0.981323,0 1.898651,0 2.810669,0c0.82132,0 1.734833,0 2.477325,0c0.997345,0 1.964844,0 2.643158,0c0.967499,0 2.061188,-0.19751 2.727509,0.085327c0.885223,0.375748 1.421692,1.129608 2.11499,1.414673c0.770325,0.316742 1.792816,0.65831 2.611664,1.100006c0.849243,0.458099 1.467896,1.013336 1.946686,1.721161c0.536896,0.793762 1.154083,1.402237 1.899994,1.845505c0.660553,0.392532 1.243683,1.295334 1.563995,2.007996c0.411499,0.915512 0.561584,1.858017 1.046661,2.425339c0.638428,0.746704 1.279297,1.122757 1.8685,1.899994c0.562317,0.74176 0.638184,1.689392 1.041687,2.5c0.428345,0.860565 1.003632,1.456421 1.578979,2.100159c0.567993,0.635529 0.814514,1.562408 0.95285,2.304352c0.187073,1.003448 0.621124,1.729126 0.825836,2.573975c0.242249,0.999786 0.12149,1.778687 0.12149,2.67868c0,0.747345 -0.03949,1.746857 0.036011,2.578827c0.08493,0.935944 0.326599,1.71405 0.538666,2.538666c0.271454,1.055481 0.392029,1.767059 0.420837,2.62085c0.033936,1.00528 -0.003876,1.847809 0.171143,2.771149c0.152252,0.803223 0.446777,1.679199 0.634674,2.320007c0.302979,1.033203 0.508942,1.757965 0.762665,2.85199c0.160004,0.689911 0.35199,1.893341 0.436005,2.661346c0.084015,0.768005 0.218414,1.643402 0.425323,2.661346c0.147247,0.724426 0.324493,1.451355 0.453186,2.516815c0.116119,0.961304 0.119232,1.803009 0.12149,2.679016c0.002289,0.890991 -0.052612,1.806213 0.057159,2.547333c0.149811,1.011261 0.577515,1.816864 0.776184,2.762146c0.164276,0.781586 0.172455,1.646271 0.250671,2.23468c0.160156,1.204651 0.431183,2.095123 0.563324,2.698669c0.261383,1.193756 0.32663,2.09967 0.34198,2.699982c0.03064,1.199677 0.010681,2.09552 0.010681,2.679169c0,0.83551 -0.0383,2.0672 0.036011,2.710175c0.11795,1.020752 0.463989,1.810669 0.797333,2.810669l0.130646,0.799988l0.034668,0.800018" fill="none" id="svg_21" stroke="#000000" stroke-width="5"/>
  <rect fill="#ff0000" height="6" id="svg_22" stroke="#ff0000" stroke-width="5" width="3" x="491.5" y="314.5"/>
  <rect fill="#ff0000" height="1" id="svg_23" stroke="#ff0000" stroke-width="5" width="0" x="553.5" y="352.5"/>
 </g>
</svg>