<svg xmlns="http://www.w3.org/2000/svg" width="65.946" height="80"><defs><clipPath id="a"><path d="M0 60h49.46V0H0z"/></clipPath></defs><g clip-path="url(#a)" transform="matrix(1.33333 0 0 -1.33333 0 80)"><path d="M6.867 9.72h-3.38a.259.259 0 1 0 0 .518h3.38a.258.258 0 0 0 0-.517m0-1.565h-3.38a.258.258 0 1 0 0 .517h3.38a.258.258 0 0 0 0-.517m0-1.566h-3.38a.26.26 0 0 0 0 .517h3.38a.258.258 0 1 0 0-.517m1.786 19.996c0 1.925.333 3.773.943 5.492h-4.62L.408 27.142h5.688a.258.258 0 1 0 0-.516H0V-.001h35.18v13.584a16.371 16.371 0 0 0-10.072-3.452c-9.074 0-16.455 7.382-16.455 16.454m7.909 16.591l.629-.144.49 2.135h4.277c.956 0 1.734-.779 1.734-1.735v-.46c.455.04.915.06 1.379.061v.4a3.116 3.116 0 0 1-3.113 3.112h-3.96l.503 2.192-.63.144.745 3.244-1.166.268-2.662-11.599 1.166-.267zm24.963 6.92a.257.257 0 0 0-.366 0 17.925 17.925 0 0 1-13.702 5.202.259.259 0 0 0-.029.516 18.443 18.443 0 0 0 14.097-5.351.259.259 0 0 0 0-.366m3.79-26.573l-.448.806c5.16 6.453 6.209 15.639 1.935 23.299C42.967 54.5 35.838 58.372 28.49 58.372a20.94 20.94 0 0 1-2.534-.154l-.451.806-.195.35a1.219 1.219 0 1 1-2.128-1.187l.982-1.76 18.974-34.003.246-.44a1.219 1.219 0 0 1 2.128 1.187z" fill="#1d1d1b"/><path d="M25.108 14.866c-6.473 0-11.72 5.247-11.72 11.719 0 6.473 5.247 11.72 11.72 11.72 6.473 0 11.72-5.247 11.72-11.72 0-6.472-5.247-11.719-11.72-11.719m6.923 25.695a15.532 15.532 0 0 1-6.923 1.618c-8.612 0-15.594-6.981-15.594-15.594 0-8.612 6.982-15.594 15.594-15.594 8.125 0 14.799 6.216 15.527 14.152z" fill="red"/><path d="M31.788 20.67c-2.066 1.446-3.167 3.573-2.814 4.66.353 1.086 2.493 2.16 5.016 2.115a8.904 8.904 0 0 0-.396-3.617 8.88 8.88 0 0 0-1.806-3.159m-6.68-3.006a8.892 8.892 0 0 0-3.563.741c.738 2.412 2.42 4.117 3.563 4.117 1.142 0 2.825-1.705 3.562-4.117a8.887 8.887 0 0 0-3.562-.74m-6.68 3.005a8.88 8.88 0 0 0-1.806 3.16 8.886 8.886 0 0 0-.396 3.616c2.522.044 4.663-1.029 5.016-2.116.353-1.086-.748-3.213-2.814-4.66m1.435 13.135a8.89 8.89 0 0 0 3.318 1.494c.821-2.385.462-4.753-.462-5.424-.925-.672-3.287-.282-5.302 1.236a8.872 8.872 0 0 0 2.446 2.694m2.385-7.317a.976.976 0 0 0-.627 1.231.976.976 0 1 0 1.858-.604.977.977 0 0 0-1.23-.627m2.068-2.652a.977.977 0 1 0-.216 1.365.976.976 0 0 0 .216-1.365m.791 6.417a.977.977 0 1 0 0-1.954.977.977 0 0 0 0 1.954m2.371-5.268a.976.976 0 1 0-1.58-1.149.978.978 0 0 0 1.58 1.15m.49 1.502a.978.978 0 1 0-.605 1.86.978.978 0 0 0 .604-1.86m-.933 8.811a8.886 8.886 0 0 0 3.317-1.494A8.889 8.889 0 0 0 32.8 31.11c-2.015-1.518-4.378-1.908-5.302-1.236-.924.671-1.283 3.04-.462 5.424m-1.927 1.36c-5.563 0-10.073-4.51-10.073-10.072 0-5.564 4.51-10.074 10.073-10.074 5.563 0 10.073 4.51 10.073 10.074 0 5.562-4.51 10.072-10.073 10.072" fill="red"/></g></svg>