<svg width="53.50500000000001" height="53.50500000000001" xmlns="http://www.w3.org/2000/svg">
 <defs>
  <clipPath id="a">
   <path id="svg_1" d="m0,40.128l40.128,0l0,-40.128l-40.128,0l0,40.128z"/>
  </clipPath>
 </defs>
 <g>
  <title>background</title>
  <rect fill="none" id="canvas_background" height="602" width="802" y="-1" x="-1"/>
 </g>
 <g>
  <title>Layer 1</title>
  <g id="svg_2" transform="matrix(1.33333,0,0,-1.33333,0,53.505) " clip-path="url(#a)">
   <path id="svg_4" d="m7.062,20.063c0,7.179 5.82,13.001 13,13.001s13,-5.822 13,-13.001c0,-7.18 -5.82,-13 -13,-13s-13,5.82 -13,13m-5.895,1.999l-0.439,0l0.002,-3.997l0.437,-0.001c0.035,-0.323 0.096,-0.636 0.147,-0.954l-0.445,-0.12l1.037,-3.86l0.437,0.116c0.116,-0.301 0.234,-0.601 0.365,-0.894l-0.39,-0.225l2,-3.461l0.396,0.228c0.19,-0.26 0.376,-0.523 0.578,-0.773l-0.316,-0.316l2.827,-2.824l0.317,0.313c0.25,-0.202 0.512,-0.388 0.772,-0.578l-0.229,-0.397l3.462,-1.997l0.227,0.386c0.293,-0.13 0.592,-0.248 0.893,-0.363l-0.119,-0.44l3.862,-1.033l0.121,0.444c0.316,-0.05 0.631,-0.112 0.953,-0.146l0,-0.439l4,0l0,0.439c0.321,0.034 0.636,0.096 0.952,0.146l0.12,-0.444l3.863,1.035l-0.118,0.438c0.301,0.116 0.601,0.233 0.895,0.363l0.224,-0.387l3.462,2l-0.228,0.396c0.26,0.189 0.521,0.375 0.771,0.577l0.316,-0.315l2.828,2.828l-0.315,0.315c0.202,0.25 0.386,0.512 0.577,0.771l0.396,-0.229l2,3.464l-0.389,0.224c0.13,0.293 0.248,0.592 0.364,0.893l0.44,-0.118l1.033,3.863l-0.444,0.12c0.05,0.317 0.111,0.63 0.146,0.953l0.441,0l0,4l-0.44,0c-0.036,0.322 -0.097,0.636 -0.146,0.952l0.444,0.12l-1.036,3.863l-0.437,-0.117c-0.116,0.3 -0.233,0.599 -0.364,0.892l0.388,0.224l-2,3.465l-0.395,-0.229c-0.19,0.26 -0.375,0.522 -0.578,0.771l0.316,0.316l-2.828,2.828l-0.317,-0.315c-0.249,0.202 -0.51,0.388 -0.77,0.577l0.228,0.396l-3.464,2l-0.224,-0.388c-0.292,0.131 -0.592,0.247 -0.893,0.363l0.12,0.438l-3.866,1.035l-0.119,-0.443c-0.316,0.049 -0.63,0.111 -0.95,0.145l0,0.441l-4,-0.002l-0.002,-0.438c-0.322,-0.034 -0.637,-0.096 -0.952,-0.146l-0.119,0.445l-3.864,-1.037l0.118,-0.438c-0.3,-0.116 -0.6,-0.232 -0.893,-0.363l-0.226,0.389l-3.462,-2l0.23,-0.397c-0.262,-0.189 -0.523,-0.375 -0.772,-0.577l-0.317,0.316l-2.827,-2.828l0.314,-0.316c-0.202,-0.25 -0.387,-0.513 -0.577,-0.772l-0.397,0.229l-1.998,-3.463l0.387,-0.226c-0.13,-0.293 -0.248,-0.593 -0.364,-0.894l-0.438,0.117l-1.033,-3.861l0.443,-0.12c-0.052,-0.316 -0.113,-0.631 -0.149,-0.953"/>
   <path id="svg_5" d="m20.062,17.563a2.5,2.5 0 1 0 0,5a2.5,2.5 0 0 0 0,-5m4.783,-6.284l-4.782,4.784l-4.783,-4.783a9.959,9.959 0 0 1 4.783,-1.217c1.732,0 3.362,0.44 4.782,1.216m5.049,10.619l-6.027,-3.071l3.071,-6.026a9.955,9.955 0 0 1 2.636,4.172a9.953,9.953 0 0 1 0.32,4.925m-8.539,8.082l1.06,-6.682l6.68,1.059a9.971,9.971 0 0 1 -3.154,3.797a9.974,9.974 0 0 1 -4.586,1.826m-10.325,-5.623l6.681,-1.06l1.06,6.683a9.966,9.966 0 0 1 -4.587,-1.826a9.977,9.977 0 0 1 -3.155,-3.797m2.158,-11.558l3.07,6.028l-6.025,3.069a9.944,9.944 0 0 1 0.317,-4.923a9.975,9.975 0 0 1 2.638,-4.174"/>
  </g>
 </g>
</svg>