<svg xmlns="http://www.w3.org/2000/svg" width="51.662" height="106.667"><defs><clipPath id="a"><path d="M0 80h38.747V0H0z"/></clipPath></defs><g clip-path="url(#a)" transform="matrix(1.33333 0 0 -1.33333 0 106.667)"><path d="M38.138 28.675a.852.852 0 0 1-1.059-.573l-1.057-3.554a.847.847 0 0 1 .134-.745L34.04 16.69l-.8 1.367h-1.604c-1.2 0-1.934-.814-2.413-2.41a11.03 11.03 0 0 1-.248-.995c-.012-.06-.025-.122-.036-.184a23.576 23.576 0 0 1-.07-.377l-.016-.098a16.905 16.905 0 0 1-.135-.94l-.009-.066a21.418 21.418 0 0 1-.047-.443l-.007-.078a16.972 16.972 0 0 1-.04-.504c-.175-2.58.163-5.037 1.38-5.037h1.72l2.938 3.646.825 3.665-.732 1.248 2.388 8.026c.242.09.441.287.52.553l1.057 3.554a.852.852 0 0 1-.573 1.058" fill="#1d1d1b"/><path d="M28.75 32.21a.254.254 0 0 0-.164.027l-1.678.94-1.679-.94a.258.258 0 0 0-.25 0l-1.678.94-1.678-.94a.256.256 0 0 0-.249 0l-1.679.94-1.678-.94a.258.258 0 0 0-.25 0l-1.678.94-1.679-.94a.256.256 0 0 0-.249 0l-1.679.94-1.678-.94a.256.256 0 0 0-.249 0l-1.679.94-1.678-.94a.258.258 0 0 0-.25 0l-1.678.94-1.679-.94a.256.256 0 0 0-.249 0l-1.678.94-1.638-.917a1.574 1.574 0 0 1 1.548-1.294h25.637c.756 0 1.387.534 1.54 1.244M28.786 38.188a.25.25 0 0 0-.2.02l-1.678.941-1.679-.94a.256.256 0 0 0-.249 0l-1.678.94-1.679-.94a.256.256 0 0 0-.249 0l-1.679.94-1.678-.94a.258.258 0 0 0-.25 0l-1.678.94-1.678-.94a.258.258 0 0 0-.25 0l-1.678.94-1.678-.94a.258.258 0 0 0-.25 0l-1.679.94-1.678-.94a.256.256 0 0 0-.249 0l-1.679.94-1.678-.94a.258.258 0 0 0-.25 0l-1.678.94L0 38.216v-2.01h28.786z" fill="red"/><path d="M1.789 39.664l1.678-.94 1.678.94a.253.253 0 0 0 .25 0l1.679-.94 1.678.94a.251.251 0 0 0 .249 0l1.679-.94 1.678.94a.253.253 0 0 0 .25 0l1.678-.94 1.678.94a.253.253 0 0 0 .25 0l1.679-.94 1.678.94a.251.251 0 0 0 .249 0l1.678-.94 1.679.94a.253.253 0 0 0 .25 0l1.678-.94 1.678.94a.253.253 0 0 0 .25 0l1.678-.94.075.041v.596c0 .87-.705 1.574-1.574 1.574H1.575C.705 40.935 0 40.23 0 39.361v-.56l1.539.863a.253.253 0 0 0 .25 0M1.789 33.694l1.678-.941 1.678.94a.258.258 0 0 0 .25 0l1.679-.94 1.678.94a.256.256 0 0 0 .249 0l1.679-.94 1.678.94a.258.258 0 0 0 .25 0l1.678-.94 1.678.94a.258.258 0 0 0 .25 0l1.679-.94 1.678.94a.256.256 0 0 0 .249 0l1.678-.94 1.679.94a.258.258 0 0 0 .25 0l1.678-.94 1.678.94a.258.258 0 0 0 .25 0l1.678-.94.075.042v2.9H0v-2.864l1.539.863a.258.258 0 0 0 .25 0" fill="red"/><path d="M27.015 21.59h-2.49V2.866h2.49v8.627h.725c.042.99.149 1.813.196 2.14.112.774.245 1.44.4 2.014h-1.321z" fill="#1d1d1b"/><path d="M19.59 2.194h-3.018v1.782h.94v1.037h1.14V3.976h.938zm-5.075 0h-3.018v1.782h.94v1.037h1.138V3.976h.94zm-5.075 0H6.422v1.782h.94v1.037H8.5V3.976h.94zm14.233-.85v22.052H17.57v1.951h-7.022v-1.95H4.445V1.343H3.101V0h21.916v1.344z" fill="#1d1d1b"/><path d="M12.008 2.704h1.997v.761h-1.997zM17.083 2.704h1.997v.761h-1.997zM6.932 2.704h1.997v.761H6.932zM6.103 26.198h15.912v3.074h4.525v.974H1.577v-.974h4.526zM12.985 56.669h1.959l2.568.934 2.438.887v-.553h.307v-7.872h2.15a.595.595 0 0 1 1.178.13c0 .585-.476 1.06-1.061 1.06h-1.075v6.682h.309v4.93h.594v4.295h-.594v9.54h.489V80H19.46v-3.298h.489v-9.54h-.593v-2.816l-1.845-.67-4.527-1.641z" fill="#1d1d1b"/><path d="M17.512 56.697l-2.277-.828-.14-.051h-2.961v6.813l.56.203 3.758 1.363h-5.845V41.786h6.905z" fill="#1d1d1b"/></g></svg>