<svg xmlns="http://www.w3.org/2000/svg" width="98.04" height="58.667"><defs><clipPath id="a"><path d="M0 44h73.53V0H0z"/></clipPath></defs><g clip-path="url(#a)" transform="matrix(1.33333 0 0 -1.33333 0 58.667)"><path d="M68.142 2.08a.966.966 0 0 0-.963.96c0 .521.442.944.963.944a.948.948 0 0 0 .962-.944.952.952 0 0 0-.962-.96m-3.27 0a.967.967 0 0 0-.964.96c0 .521.444.944.963.944a.953.953 0 0 0 0-1.905m-3.272 0a.966.966 0 0 0-.963.961c0 .521.445.944.963.944a.953.953 0 0 0 0-1.905m-3.27 0a.964.964 0 0 0-.963.961.96.96 0 0 0 .963.944.953.953 0 0 0 0-1.905m-3.273 0a.966.966 0 0 0-.963.961c0 .521.443.944.963.944a.95.95 0 0 0 .963-.944.955.955 0 0 0-.963-.96m-3.272 0a.964.964 0 0 0-.96.96.96.96 0 0 0 .96.944c.54 0 .962-.423.962-.944a.952.952 0 0 0-.962-.96m-3.273 0a.969.969 0 0 0-.963.96c0 .521.446.944.963.944a.953.953 0 0 0 0-1.905M70.086 10.182c-.44 0-.827.307-.942.772a.949.949 0 0 0 .732 1.135c.038 0 .174.019.212.019a.951.951 0 0 0 .942-.752c.116-.52-.213-1.02-.731-1.153-.04 0-.173-.021-.213-.021m-3.194-.691a.984.984 0 0 0-.942.75.965.965 0 0 0 .732 1.153c.037 0 .173.02.21.02a.966.966 0 0 0 .943-.751.966.966 0 0 0-.73-1.153c-.04 0-.174-.02-.213-.02m-3.196-.711a.964.964 0 0 0-.941.767.958.958 0 0 0 .73 1.136.88.88 0 0 0 .21.039.987.987 0 0 0 .946-.771c.057-.251 0-.5-.133-.731a.885.885 0 0 0-.6-.404.922.922 0 0 0-.212-.036m-3.192-.695a.95.95 0 0 0-.945.772c-.117.499.212 1.018.73 1.134.038 0 .174.02.214.02a.984.984 0 0 0 .942-.751c.117-.52-.21-1.04-.768-1.156-.02 0-.154-.02-.173-.02m-3.196-.692a.97.97 0 0 0-.945.75c-.057.25 0 .52.136.732a.856.856 0 0 0 .596.403.856.856 0 0 0 .213.039c.442 0 .827-.307.944-.77a.959.959 0 0 0-.732-1.135c-.038-.02-.174-.02-.212-.02m-3.196-.711a.948.948 0 0 0-.943.77.949.949 0 0 0 .73 1.135c.04 0 .174.02.213.02a.986.986 0 0 0 .945-.752.992.992 0 0 0-.753-1.152c-.018 0-.154-.021-.192-.021m-3.194-.691a.952.952 0 0 0-.944.748.97.97 0 0 0 .73 1.155c.04 0 .176.02.214.02.443 0 .827-.308.943-.77a.959.959 0 0 0-.73-1.134c-.04-.02-.174-.02-.213-.02m-3.195-.713a.95.95 0 0 0-.942.77.95.95 0 0 0 .732 1.136.798.798 0 0 0 .21.019.982.982 0 0 0 .944-.75 1.01 1.01 0 0 0-.75-1.156c-.02 0-.155-.02-.194-.02M72.57 22.248c-.347 0-.654.192-.847.481a.997.997 0 0 0 .365 1.328.975.975 0 0 0 1.308-.365.947.947 0 0 0-.346-1.31 1.072 1.072 0 0 0-.48-.134m-2.83-1.656a.969.969 0 0 0-.825.482.97.97 0 0 0 .345 1.329c.441.25 1.058.078 1.307-.347a.89.89 0 0 0 .097-.732.924.924 0 0 0-.443-.596 1.06 1.06 0 0 0-.48-.135m-2.829-1.634a.947.947 0 0 0-.827.46.899.899 0 0 0-.097.731.926.926 0 0 0 .443.596c.441.27 1.058.098 1.308-.344a.963.963 0 0 0-.327-1.31.934.934 0 0 0-.5-.133m-2.83-1.657a.974.974 0 0 0-.829.483c-.135.21-.154.462-.095.712.057.249.23.462.441.595.445.27 1.058.099 1.311-.346a.965.965 0 0 0 .115-.731.981.981 0 0 0-.442-.579.94.94 0 0 0-.502-.135m-2.81-1.655c-.346 0-.673.193-.846.482a1.057 1.057 0 0 0-.098.732.973.973 0 0 0 .444.578c.462.268 1.078.096 1.33-.327.114-.232.152-.482.095-.73a.995.995 0 0 0-.443-.599 1.07 1.07 0 0 0-.482-.136m-2.829-1.654a.946.946 0 0 0-.825.481.976.976 0 0 0-.117.731c.077.251.23.462.463.595.421.253 1.057.1 1.306-.344a.971.971 0 0 0-.346-1.328 1.06 1.06 0 0 0-.48-.135m-2.829-1.637a.953.953 0 0 0-.827.462.892.892 0 0 0-.097.731c.06.25.212.461.443.597.441.251 1.058.098 1.308-.347a.95.95 0 0 0-.346-1.307.823.823 0 0 0-.48-.136m-2.83-1.654a.947.947 0 0 0-.826.481.953.953 0 0 0 .345 1.307c.445.27 1.061.098 1.311-.344.268-.443.113-1.039-.349-1.31a.822.822 0 0 0-.48-.134m-2.83-1.656a.948.948 0 0 0-.827.481.945.945 0 0 0 .345 1.307.976.976 0 0 0 1.33-.345.986.986 0 0 0-.347-1.307.932.932 0 0 0-.5-.136M68.142 35.952a.906.906 0 0 0-.616.232.93.93 0 0 0-.116 1.345c.327.404.944.444 1.348.116a.912.912 0 0 0 .346-.653.926.926 0 0 0-.23-.694.949.949 0 0 0-.732-.346m-2.098-2.504a.983.983 0 0 0-.615.213.972.972 0 0 0-.115 1.367c.326.387.94.445 1.345.117a.976.976 0 0 0 .117-1.367.937.937 0 0 0-.732-.33m-2.096-2.52a.905.905 0 0 0-.616.231.913.913 0 0 0-.345.654c-.02.25.055.5.228.693.33.404.962.461 1.347.115a.922.922 0 0 0 .35-.653.936.936 0 0 0-.233-.695.958.958 0 0 0-.73-.346m-2.1-2.519c-.229 0-.442.096-.616.23a.978.978 0 0 0-.116 1.37c.328.382.963.441 1.347.112.405-.345.463-.96.136-1.348a.983.983 0 0 0-.75-.364m-2.1-2.504a.914.914 0 0 0-.615.231.952.952 0 0 0-.117 1.348.989.989 0 0 0 1.367.116.966.966 0 0 0 .097-1.348.894.894 0 0 0-.732-.347m-2.097-2.502a.997.997 0 0 0-.617.213 1.003 1.003 0 0 0-.346.654.998.998 0 0 0 .232.712c.326.387.943.442 1.347.115a.95.95 0 0 0 .115-1.347.896.896 0 0 0-.73-.347m-2.098-2.52a.912.912 0 0 0-.617.23.948.948 0 0 0-.115 1.345c.327.406.963.443 1.348.136.193-.173.326-.405.346-.654a.944.944 0 0 0-.23-.712.952.952 0 0 0-.732-.346m-2.098-2.5a.995.995 0 0 0-.615.211.972.972 0 0 0-.115 1.367c.326.387.94.445 1.345.117a.973.973 0 0 0 .117-1.367.933.933 0 0 0-.732-.328m-2.097-2.523a.91.91 0 0 0-.617.231c-.193.155-.308.385-.346.655a.916.916 0 0 0 .23.693c.328.387.943.462 1.347.115a.95.95 0 0 0 .116-1.348.956.956 0 0 0-.73-.346m-2.1-2.502a.91.91 0 0 0-.615.232c-.404.327-.463.922-.117 1.347.327.385.963.442 1.367.115a.969.969 0 0 0 .098-1.348.901.901 0 0 0-.733-.346m-2.098-2.52a.958.958 0 0 0-.616.228.953.953 0 0 0-.116 1.348c.327.406.963.464 1.348.136a.91.91 0 0 0 .345-.654.923.923 0 0 0-.23-.712.948.948 0 0 0-.73-.347m-2.097-2.502a.98.98 0 0 0-.615.213.973.973 0 0 0-.116 1.367c.327.387.943.442 1.346.115a.97.97 0 0 0 .116-1.367.938.938 0 0 0-.73-.328M54.132 36.434a.879.879 0 0 0-.387.077.89.89 0 0 0-.517.538.88.88 0 0 0 .018.73c.195.464.809.695 1.252.503a.958.958 0 0 0 .518-.54.964.964 0 0 0 0-.73.972.972 0 0 0-.884-.578m-1.31-3.004a.826.826 0 0 0-.382.079.942.942 0 0 0-.518.539.997.997 0 0 0 .019.712.956.956 0 0 0 .883.595c.059 0 .328-.056.386-.077.23-.115.423-.287.518-.536a1.071 1.071 0 0 0-.02-.734.974.974 0 0 0-.885-.578m-1.307-3.002a.923.923 0 0 0-.886.615.868.868 0 0 0 .02.732.923.923 0 0 0 .866.578c.077 0 .327-.058.384-.077a.979.979 0 0 0 .502-1.271.978.978 0 0 0-.886-.577m-1.291-3.003a.964.964 0 0 0-.905.615.965.965 0 0 0 .019.73c.194.465.789.696 1.27.502.232-.114.425-.287.502-.537a.973.973 0 0 0 0-.731.974.974 0 0 0-.886-.58m-1.31-3a.86.86 0 0 0-.384.077.952.952 0 0 0-.518.538c-.077.23-.077.5.019.733.213.48.848.692 1.25.499a.92.92 0 0 0 .538-.538.955.955 0 0 0-.018-.731.974.974 0 0 0-.886-.578m-1.307-3.002a.848.848 0 0 0-.367.075.904.904 0 0 0-.518.539.88.88 0 0 0 .018.73c.192.464.789.714 1.252.504a.967.967 0 0 0 .5-1.271.97.97 0 0 0-.885-.577m-1.29-3.003c-.135 0-.271.039-.385.078a1.017 1.017 0 0 0-.521.539.974.974 0 0 0 .02.73c.155.347.5.579.887.579.055 0 .307-.058.384-.078a.976.976 0 0 0 .5-1.27.974.974 0 0 0-.884-.578m-1.311-3.002c-.077 0-.326.057-.384.077-.48.229-.712.788-.502 1.269.214.48.809.693 1.272.502a.963.963 0 0 0 .52-.54 1.057 1.057 0 0 0-.02-.73.969.969 0 0 0-.886-.578m-1.31-3.003c-.112 0-.267.04-.362.078a.897.897 0 0 0-.52.539.88.88 0 0 0 .018.73c.193.483.809.696 1.252.502a.97.97 0 0 0 .518-.518.92.92 0 0 0-.02-.753.972.972 0 0 0-.885-.578M39.813 16.147a.955.955 0 0 0-.928.753.925.925 0 0 0 .117.712c.134.23.347.385.597.422a.832.832 0 0 0 .213.039.95.95 0 0 0 .942-.753.962.962 0 0 0-.73-1.152c-.037 0-.173-.021-.21-.021m.751-3.193a.945.945 0 0 0-.942.75.969.969 0 0 0 .73 1.155c.021 0 .175.02.213.02a.988.988 0 0 0 .942-.732.998.998 0 0 0-.73-1.174c-.04 0-.177-.019-.213-.019m.73-3.178a.946.946 0 0 0-.92.732.944.944 0 0 0 .71 1.158.95.95 0 0 0 .212.036.951.951 0 0 0 .943-.75c.115-.521-.195-1.02-.732-1.154-.018-.022-.173-.022-.213-.022" fill="red"/><path d="M28.946 37.732a1.13 1.13 0 0 0 1.023 1.232 1.13 1.13 0 0 0 1.233-1.022 1.13 1.13 0 0 0-1.023-1.233 1.135 1.135 0 0 0-1.233 1.023M12.908 18.295a1.033 1.033 0 0 0 1.878.857L23.288.002 42.104.07a3.611 3.611 0 0 1-.008 7.223l-11.35.048-2.636-3.955a.962.962 0 1 0-1.602 1.067l2.781 4.17c-.782 3.162-1.958 7.085-3.319 10.594 1.735-1.723 3.936-2.816 6.577-2.203l6.994 7.742-5.557 4.35 2.443 3.123 5.776-4.524 1.792 1.98s2.022 2.693 1.175 5.685c-.644 2.277-3.474 7.983-11.611 8.59-3.977.296-5.36-1.07-6.628-3.348-.17-.311-.427-.752-.731-1.27l-1.566 1.229-2.445-3.122 2.054-1.61c-1.526-2.885-3.014-6.241-2.704-8.134.024-.151.062-.321.101-.49-3.836 4.012-9.998 2.098-11.973-.991C1.367 15.946 0 0 0 0h21.017z"/></g></svg>