<svg xmlns="http://www.w3.org/2000/svg" width="65.333" height="74.762"><defs><clipPath id="a"><path d="M0 56.072h49V0H0z"/></clipPath></defs><path d="M13.333 42.762h41.334v-8H13.333z" fill="#1d1d1b"/><path d="M9.333 41.429h8V14.762h-8zM52 54.762h8V12.095h-8zM0 10.762h5.333V1.429H0z" fill="#1d1d1b"/><path d="M0 13.429h22.667v-4H0zM38.667 13.429h22.666v-4H38.667zM5.333 69.43v5.333h5.334L12 69.429zM58.667 69.43L60 74.762h5.332v-5.334z" fill="#1d1d1b"/><g clip-path="url(#a)" transform="matrix(1.33333 0 0 -1.33333 0 74.762)"><path d="M45.5 44H35v7h10.5a2.5 2.5 0 0 0 2.5-2.5v-2a2.5 2.5 0 0 0-2.5-2.5" fill="#1d1d1b"/><path d="M32 39.934c0-.756-.807-1.248-1.468-.881-.869.482-2.084.947-3.532.947s-2.663-.465-3.532-.947c-.661-.367-1.468.125-1.468.88v15.134c0 .756.807 1.247 1.468.88C24.337 55.467 25.552 55 27 55s2.663.466 3.532.948c.661.366 1.468-.125 1.468-.881z" fill="red"/><path d="M18 28h-7v7zM4 49l1 1 1-1zM6 49l1 1 1-1zM4 55l1-1-1-1zM4 53l1-1-1-1zM4 51l1-1-1-1zM8 49l1 1 1-1zM10 49l1 1 1-1zM12 49l1 1 1-1zM14 49l1 1 1-1zM34 28h7v7zM12 19H9v4h3zM4 3h45v25H4z" fill="#1d1d1b"/></g></svg>